<svg xmlns="http://www.w3.org/2000/svg" viewBox="449 96 86.058 86.058">
  <defs>
    <style>
      .cls-1 {
        fill: #cce0d5;
      }

      .cls-2 {
        fill: #00652b;
      }
    </style>
  </defs>
  <g id="Group_5" data-name="Group 5" transform="translate(-525 91)">
    <g id="statistics" transform="translate(974 5)">
      <circle id="Ellipse_4" data-name="Ellipse 4" class="cls-1" cx="6.94" cy="6.94" r="6.94" transform="translate(69.401 16.656)"/>
      <path id="Path_11" data-name="Path 11" class="cls-2" d="M101.8,80.328a4.164,4.164,0,1,0-4.164-4.164,4.124,4.124,0,0,0,.468,1.878l-5.559,6.177-2.067-3.248L88.14,82.462l2.48,3.9-2.4,2.662a4.042,4.042,0,0,0-3.471.051l-6.961-6.961a4.125,4.125,0,0,0,.416-1.785,4.164,4.164,0,1,0-8.328,0,4.116,4.116,0,0,0,.523,1.981L61.742,93.135a4.121,4.121,0,0,0-1.578-.315,4.164,4.164,0,1,0,4.164,4.164A4.115,4.115,0,0,0,63.8,95l8.661-10.827a4.059,4.059,0,0,0,3.362-.1l6.961,6.961a4.125,4.125,0,0,0-.416,1.785,4.164,4.164,0,1,0,8.328,0,4.119,4.119,0,0,0-.468-1.878l1.936-2.151,5.688,8.939,2.343-1.491-6.1-9.59,6.018-6.686A4.14,4.14,0,0,0,101.8,80.328ZM60.164,98.372a1.388,1.388,0,1,1,1.388-1.388A1.389,1.389,0,0,1,60.164,98.372ZM72.656,80.328a1.388,1.388,0,1,1,1.388,1.388A1.389,1.389,0,0,1,72.656,80.328Zm13.88,13.88a1.388,1.388,0,1,1,1.388-1.388A1.389,1.389,0,0,1,86.537,94.208ZM101.8,74.776a1.388,1.388,0,1,1-1.388,1.388A1.389,1.389,0,0,1,101.8,74.776Z" transform="translate(-46.284 -59.508)"/>
      <path id="Path_12" data-name="Path 12" class="cls-1" d="M321.9,211.766v-19.1a8.555,8.555,0,0,0-7.351-8.609,8.3,8.3,0,0,0-5.037,1c-.2.111-11.208,7.268-11.208,7.268l-6.246-6.246a2.946,2.946,0,0,0-4.164,0h0a2.946,2.946,0,0,0,0,4.164l7.126,7.126a3.9,3.9,0,0,0,4.346.806l5.878-2.612v16.194Z" transform="translate(-237.231 -152.081)"/>
      <path id="Path_13" data-name="Path 13" class="cls-2" d="M86.058,0H0V8.328H4.164v58.3H9.841a8.345,8.345,0,0,0,4.769,6.191,9.725,9.725,0,0,0-6.282,9.078v4.164H27.761V81.894a9.725,9.725,0,0,0-6.282-9.078,8.345,8.345,0,0,0,4.769-6.191h8.579A8.345,8.345,0,0,0,39.6,72.816a9.725,9.725,0,0,0-6.284,9.078v4.164H52.745V81.894a9.725,9.725,0,0,0-6.282-9.078,8.345,8.345,0,0,0,4.769-6.191h8.579a8.345,8.345,0,0,0,4.769,6.191A9.725,9.725,0,0,0,58.3,81.894v4.164H77.729V81.894a9.725,9.725,0,0,0-6.282-9.078A8.323,8.323,0,1,0,59.81,63.849H51.232a8.318,8.318,0,0,0-16.406,0H26.248a8.318,8.318,0,0,0-16.406,0H6.94V8.328H79.117v6.94h2.776V8.328h4.164Zm-11.1,81.894v1.388H61.073V81.894a6.94,6.94,0,0,1,13.88,0Zm-6.94-22.208a5.552,5.552,0,1,1-5.552,5.552A5.558,5.558,0,0,1,68.013,59.685ZM49.969,81.894v1.388H36.089V81.894a6.94,6.94,0,0,1,13.88,0Zm-6.94-22.208a5.552,5.552,0,1,1-5.552,5.552A5.558,5.558,0,0,1,43.029,59.685ZM24.984,81.894v1.388H11.1V81.894a6.94,6.94,0,0,1,13.88,0Zm-6.94-22.208a5.552,5.552,0,1,1-5.552,5.552A5.558,5.558,0,0,1,18.044,59.685ZM83.282,5.552H2.776V2.776H83.282Z"/>
      <path id="Path_14" data-name="Path 14" class="cls-2" d="M418.672,186.344l-3.183,3.183-3.183-3.183-1.963,1.963,3.757,3.757v10.53h2.776v-10.53l3.757-3.757Z" transform="translate(-339.148 -154.013)"/>
      <rect id="Rectangle_4" data-name="Rectangle 4" class="cls-2" width="22.208" height="2.776" transform="translate(22.208 44.417)"/>
      <rect id="Rectangle_5" data-name="Rectangle 5" class="cls-2" width="18.044" height="2.776" transform="translate(26.372 49.969)"/>
    </g>
  </g>
</svg>
