<svg xmlns="http://www.w3.org/2000/svg" viewBox="753 96 74.61 85.963">
  <defs>
    <style>
      .cls-1 {
        fill: #cce0d5;
      }

      .cls-2 {
        fill: #00652b;
      }

      .cls-3 {
        fill: #333;
      }
    </style>
  </defs>
  <g id="Group_6" data-name="Group 6" transform="translate(-318 535)">
    <g id="guarantee" transform="translate(1071 -439)">
      <circle id="Ellipse_5" data-name="Ellipse 5" class="cls-1" cx="19.344" cy="19.344" r="19.344" transform="translate(23.489 18.068)"/>
      <path id="Path_15" data-name="Path 15" class="cls-2" d="M90.789,5.633A75.572,75.572,0,0,1,62.6.206L62.09,0l-.513.206A75.578,75.578,0,0,1,33.391,5.633h-3.08V34.648H23.4a4.15,4.15,0,0,0-4.145,4.145V62.282A4.15,4.15,0,0,0,23.4,66.427H35.845A35.871,35.871,0,0,0,49.022,78.835L62.09,85.963l13.068-7.128A35.881,35.881,0,0,0,93.868,47.316V5.633ZM22.021,62.282V38.793A1.383,1.383,0,0,1,23.4,37.412H35.838a1.383,1.383,0,0,1,1.382,1.382V62.282a1.383,1.383,0,0,1-1.382,1.382H23.4A1.383,1.383,0,0,1,22.021,62.282ZM39.983,41.545a8.782,8.782,0,0,0,8.29-8.757v-7.12a3.454,3.454,0,1,1,6.909,0v8.7a4.434,4.434,0,0,0,4.43,4.43H69.741a4.79,4.79,0,0,1,4.785,4.785v15.3a4.79,4.79,0,0,1-4.785,4.785H49.383a3.27,3.27,0,0,1-2.723-1.458,6.024,6.024,0,0,0-5.022-2.687H39.983V41.545Zm51.122,5.771a33.121,33.121,0,0,1-17.27,29.093L62.09,82.815,50.345,76.408A33.138,33.138,0,0,1,38.488,65.442a4.116,4.116,0,0,0,1.467-2.888A30.245,30.245,0,0,0,51.668,73.982L62.09,79.668l10.422-5.686a30.356,30.356,0,0,0,15.83-26.665V26.358H85.579V47.317A27.594,27.594,0,0,1,71.19,71.556l-9.1,4.963-9.1-4.963A27.5,27.5,0,0,1,43.368,62.8a3.244,3.244,0,0,1,.992.94,6.024,6.024,0,0,0,5.022,2.687H69.741a7.556,7.556,0,0,0,7.548-7.548v-15.3a7.556,7.556,0,0,0-7.548-7.548H59.612a1.668,1.668,0,0,1-1.666-1.666v-8.7a6.218,6.218,0,1,0-12.435,0v7.118a6,6,0,0,1-5.532,5.959A4.117,4.117,0,0,0,38.6,35.726V13.764A83.772,83.772,0,0,0,62.09,8.881a83.787,83.787,0,0,0,23.489,4.883v1.541h2.763v-4.17l-1.318-.061a81.07,81.07,0,0,1-24.454-4.96l-.48-.178-.48.177a81.089,81.089,0,0,1-24.454,4.96l-1.318.062V34.649H33.074V8.4h.316a78.3,78.3,0,0,0,28.7-5.422A78.3,78.3,0,0,0,90.788,8.4H91.1V47.316h0Z" transform="translate(-19.258)"/>
      <rect id="Rectangle_6" data-name="Rectangle 6" class="cls-3" width="2.763" height="2.763" transform="translate(66.321 20.832)"/>
      <rect id="Rectangle_7" data-name="Rectangle 7" class="cls-3" width="9.672" height="2.763" transform="translate(5.526 58.137)"/>
    </g>
  </g>
</svg>
