<svg xmlns="http://www.w3.org/2000/svg" viewBox="1042.103 96 86.442 86.442">
  <defs>
    <style>
      .cls-1 {
        fill: #cce0d5;
      }

      .cls-2 {
        fill: #00652b;
      }
    </style>
  </defs>
  <g id="Group_10" data-name="Group 10" transform="translate(113 85.897)">
    <path id="Path_16" data-name="Path 16" class="cls-1" d="M180.25,16H144v2.788h13.942v2.788h8.365V18.788H180.25Z" transform="translate(810.199 -3.109)"/>
    <g id="Group_8" data-name="Group 8" transform="translate(929.103 10.103)">
      <path id="Path_17" data-name="Path 17" class="cls-2" d="M82.217,20.972,76.682,18.6v-.844a9.76,9.76,0,1,0-11.154,0V18.6l-5.535,2.372a6.964,6.964,0,0,0-4.224,6.408v6.992a6.981,6.981,0,0,0-1.436-.852L48.8,31.148V30.3a9.76,9.76,0,1,0-11.154,0v.844L32.109,33.52a6.944,6.944,0,0,0-1.436.852V27.38a6.964,6.964,0,0,0-4.224-6.408L20.913,18.6v-.844a9.76,9.76,0,1,0-11.154,0V18.6L4.224,20.972A6.964,6.964,0,0,0,0,27.38V43.918A4.885,4.885,0,0,0,4.88,48.8a4.83,4.83,0,0,0,2.091-.489V73.894H23.7V48.308a4.713,4.713,0,0,0,4.183,0v8.158a4.885,4.885,0,0,0,4.88,4.88,4.83,4.83,0,0,0,2.091-.489V86.442H51.586V60.856a4.83,4.83,0,0,0,2.091.489,4.885,4.885,0,0,0,4.88-4.88V48.308a4.713,4.713,0,0,0,4.183,0V73.894H79.471V48.308a4.83,4.83,0,0,0,2.091.489,4.885,4.885,0,0,0,4.88-4.88V27.38A6.964,6.964,0,0,0,82.217,20.972Zm-13.9-1.864a9.658,9.658,0,0,0,5.577,0v.025l-2.788,4.648-2.788-4.648Zm-1.6,2.784,3.261,5.435-4.2-1.68Zm8.77,0,.94,3.755-4.2,1.68ZM64.134,9.76a6.971,6.971,0,1,1,6.971,6.971A6.979,6.979,0,0,1,64.134,9.76ZM58.557,27.38a4.182,4.182,0,0,1,2.535-3.845l2.625-1.125-1.231,4.923,8.619,3.448,8.619-3.448-1.231-4.923,2.625,1.125a4.182,4.182,0,0,1,2.535,3.845V40.432H79.471V34.856H76.682v8.365H65.528V34.856H62.74v5.577H58.557V27.38ZM69.711,48.8V65.528H65.528V46.009H76.682V65.528H72.5V48.8ZM40.432,31.656a9.658,9.658,0,0,0,5.577,0v.025l-2.788,4.648-2.788-4.648Zm-1.6,2.784L42.1,39.875l-4.2-1.68Zm8.77,0,.94,3.755-4.2,1.68ZM36.25,22.308a6.971,6.971,0,1,1,6.971,6.971A6.979,6.979,0,0,1,36.25,22.308ZM33.208,36.082l2.625-1.125L34.6,39.88l8.619,3.448L51.84,39.88l-1.231-4.923,2.625,1.125a4.182,4.182,0,0,1,2.535,3.845V52.98H51.586V47.4H48.8v8.365H37.644V47.4H34.856V52.98H30.673V39.928A4.182,4.182,0,0,1,33.208,36.082Zm8.619,25.263V78.076H37.644V58.557H48.8V78.076H44.615V61.346ZM12.548,19.108a9.658,9.658,0,0,0,5.577,0v.025l-2.788,4.648-2.788-4.648Zm-1.6,2.784,3.261,5.435-4.2-1.68Zm8.77,0,.94,3.755-4.2,1.68ZM8.365,9.76a6.971,6.971,0,1,1,6.971,6.971A6.979,6.979,0,0,1,8.365,9.76ZM5.323,23.534l2.625-1.125L6.717,27.332l8.619,3.448,8.619-3.448-1.231-4.923,2.625,1.125a4.182,4.182,0,0,1,2.535,3.845V40.432H23.7V34.856H20.913v8.365H9.76V34.856H6.971v5.577H2.788V27.38A4.182,4.182,0,0,1,5.323,23.534ZM13.942,48.8V65.528H9.76V46.009H20.913V65.528H16.731V48.8ZM4.88,46.009a2.094,2.094,0,0,1-2.091-2.091v-.7H6.971v.7A2.094,2.094,0,0,1,4.88,46.009ZM9.76,68.317h4.183v2.788H9.76Zm6.971,2.788V68.317h4.183v2.788Zm9.062-25.1A2.094,2.094,0,0,1,23.7,43.918v-.7h4.183v.7A2.094,2.094,0,0,1,25.793,46.009Zm6.971,12.548a2.094,2.094,0,0,1-2.091-2.091v-.7h4.183v.7A2.094,2.094,0,0,1,32.764,58.557Zm4.88,22.308h4.183v2.788H37.644Zm6.971,2.788V80.865H48.8v2.788Zm9.062-25.1a2.094,2.094,0,0,1-2.091-2.091v-.7h4.183v.7A2.094,2.094,0,0,1,53.678,58.557Zm6.971-12.548a2.094,2.094,0,0,1-2.091-2.091v-.7H62.74v.7A2.094,2.094,0,0,1,60.649,46.009Zm4.88,22.308h4.183v2.788H65.528ZM72.5,71.105V68.317h4.183v2.788Zm9.062-25.1a2.094,2.094,0,0,1-2.091-2.091v-.7h4.183v.7A2.094,2.094,0,0,1,81.562,46.009Z"/>
      <rect id="Rectangle_8" data-name="Rectangle 8" class="cls-2" width="2.788" height="2.788" transform="translate(41.827)"/>
      <rect id="Rectangle_9" data-name="Rectangle 9" class="cls-2" width="2.788" height="2.788" transform="translate(47.404)"/>
      <rect id="Rectangle_10" data-name="Rectangle 10" class="cls-2" width="2.788" height="2.788" transform="translate(52.98)"/>
      <rect id="Rectangle_11" data-name="Rectangle 11" class="cls-2" width="2.788" height="2.788" transform="translate(25.096)"/>
      <rect id="Rectangle_12" data-name="Rectangle 12" class="cls-2" width="2.788" height="2.788" transform="translate(30.673)"/>
      <rect id="Rectangle_13" data-name="Rectangle 13" class="cls-2" width="2.788" height="2.788" transform="translate(36.25)"/>
      <rect id="Rectangle_14" data-name="Rectangle 14" class="cls-2" width="2.788" height="2.788" transform="translate(58.557)"/>
      <rect id="Rectangle_15" data-name="Rectangle 15" class="cls-2" width="2.788" height="2.788" transform="translate(41.827 5.577)"/>
    </g>
    <g id="Group_9" data-name="Group 9" transform="translate(940.257 15.68)">
      <circle id="Ellipse_6" data-name="Ellipse 6" class="cls-1" cx="4.183" cy="4.183" r="4.183" transform="translate(27.884 12.548)"/>
      <circle id="Ellipse_7" data-name="Ellipse 7" class="cls-1" cx="4.183" cy="4.183" r="4.183"/>
      <circle id="Ellipse_8" data-name="Ellipse 8" class="cls-1" cx="4.183" cy="4.183" r="4.183" transform="translate(55.769)"/>
    </g>
  </g>
</svg>
