<svg xmlns="http://www.w3.org/2000/svg" viewBox="123 92 87.5 87.5">
  <defs>
    <style>
      .cls-1 {
        fill: #cce0d5;
      }

      .cls-2 {
        fill: #00652b;
      }
    </style>
  </defs>
  <g id="Group_7" data-name="Group 7" transform="translate(0 -50)">
    <g id="Group_3" data-name="Group 3" transform="translate(123 142)">
      <path id="Path_7" data-name="Path 7" class="cls-1" d="M174.875,23.6a2.826,2.826,0,0,1-2.823-2.823V19.365H149.472v1.411a2.826,2.826,0,0,1-2.823,2.823h-1.411V54.647h31.048V23.6ZM152.295,53.236a8.468,8.468,0,1,1,16.936,0Z" transform="translate(-102.899 -13.72)"/>
      <path id="Path_8" data-name="Path 8" class="cls-2" d="M80.444,32.46H79.032V0H36.694V32.46H35.282a7.064,7.064,0,0,0-7.056,7.056V53.629H5.268A5.275,5.275,0,0,0,0,58.9V82.23A5.275,5.275,0,0,0,5.268,87.5H80.444A7.064,7.064,0,0,0,87.5,80.444V39.516A7.064,7.064,0,0,0,80.444,32.46ZM39.516,2.823H76.21V38.105H67.629a9.866,9.866,0,0,0-19.532,0H39.516V2.823ZM64.777,38.105H50.948a7.057,7.057,0,0,1,13.829,0ZM35.282,35.282h1.411v2.823H35.282v2.823H80.444V38.105H79.032V35.282h1.411a4.239,4.239,0,0,1,4.234,4.234V45.2a6.984,6.984,0,0,0-4.234-1.448H35.282a4.234,4.234,0,1,1,0-8.468ZM5.268,56.452H42.714A2.45,2.45,0,0,1,45.162,58.9v14.49H2.823V58.9A2.45,2.45,0,0,1,5.268,56.452ZM45.161,79.032H2.823V76.21H45.162v2.823Zm-2.822,5.645H5.268a2.45,2.45,0,0,1-2.446-2.446v-.377H45.162v.377a2.45,2.45,0,0,1-2.446,2.446ZM84.678,70.565H64.919a4.234,4.234,0,1,1,0-8.468H84.678Zm0-11.29H64.919a7.056,7.056,0,1,0,0,14.113H84.678v7.056a4.239,4.239,0,0,1-4.234,4.234H47.353a5.194,5.194,0,0,0,.631-2.446V58.9a5.275,5.275,0,0,0-5.269-5.268H31.048v-8.5a6.984,6.984,0,0,0,4.234,1.448H80.444a4.239,4.239,0,0,1,4.234,4.234Z"/>
      <circle id="Ellipse_3" data-name="Ellipse 3" class="cls-2" cx="1.411" cy="1.411" r="1.411" transform="translate(63.508 64.919)"/>
      <rect id="Rectangle_2" data-name="Rectangle 2" class="cls-2" width="9.879" height="2.823" transform="translate(5.645 59.274)"/>
      <rect id="Rectangle_3" data-name="Rectangle 3" class="cls-2" width="7.056" height="2.823" transform="translate(8.468 64.919)"/>
      <path id="Path_10" data-name="Path 10" class="cls-2" d="M24.051,28.054A12.7,12.7,0,1,0,0,22.384a12.594,12.594,0,0,0,1.352,5.669,12.461,12.461,0,0,0,0,11.29,12.7,12.7,0,1,0,22.7,0,12.46,12.46,0,0,0,0-11.29ZM12.7,12.505a9.879,9.879,0,1,1-9.879,9.879A9.89,9.89,0,0,1,12.7,12.505Zm0,22.581h1.411a1.411,1.411,0,1,1,0,2.822H11.29A1.413,1.413,0,0,1,9.879,36.5H7.056a4.239,4.239,0,0,0,4.234,4.234v1.411h2.823V40.731A4.228,4.228,0,0,0,17.6,34.1a12.727,12.727,0,0,0,4.548-3.256A9.871,9.871,0,1,1,2.823,33.675a9.8,9.8,0,0,1,.433-2.828A12.66,12.66,0,0,0,12.7,35.086Zm9.879,9.879A9.879,9.879,0,1,1,3.256,42.137,12.662,12.662,0,0,0,12.7,46.377h1.411a1.411,1.411,0,0,1,0,2.822H11.29a1.413,1.413,0,0,1-1.411-1.411H7.056a4.239,4.239,0,0,0,4.234,4.234v1.411h2.823V52.022A4.228,4.228,0,0,0,17.6,45.393a12.727,12.727,0,0,0,4.548-3.256A9.807,9.807,0,0,1,22.581,44.965Z" transform="translate(0 -6.86)"/>
    </g>
  </g>
</svg>
